FILE "tenma_01.wav" WAVE
  TRACK 01 AUDIO
    INDEX 01 00:00:00
FILE "tenma_02_build.iso" BINARY
  TRACK 02 MODE1/2048
    PREGAP 00:03:06
    INDEX 01 00:00:00
FILE "tenma_03.wav" WAVE
  TRACK 03 AUDIO
    PREGAP 00:02:00
    INDEX 01 00:00:00
FILE "tenma_04.wav" WAVE
  TRACK 04 AUDIO
    INDEX 01 00:00:00
FILE "tenma_05.wav" WAVE
  TRACK 05 AUDIO
    INDEX 01 00:00:00
FILE "tenma_06.iso" BINARY
  TRACK 06 MODE1/2048
    PREGAP 00:03:01
    INDEX 01 00:00:00
